# xmcd
#
# Track frame offsets:
# 150
# 12895
# 25306
# 40301
# 51599
# 66413
# 87565
# 100066
# 117216
# 131924
# 149608
# 162051
# 174001
# 181796
# 206839
# 241149
# 252186
# 265286
# 275273
# 297070
# 307679
# 323253
# 330317
# 345502
#
# Disc length: 4733 seconds
#
#
# Revision: 0
# Processed by: cddbd v1.5.1PL0 Copyright (c) Steve Scherf et al.
# Submitted via: FreeRIP 2.91 
#
DISCID=4e127b18
DTITLE=Various Artist - Masters of The Cigar Box Guitar Vol. 1
DYEAR=1900
DGENRE=Blues
TTITLE0=Bans - Beans Hambone
TTITLE1=When I lay My Burden Down - Rollie Tussing and Eliza Holbrook
TTITLE2=They Call Me Cigar Box Slim - Cigar Box Slim and the Smokebox Revival
TTITLE3=Jack O' Diamonds - Salty Dog
TTITLE4=You Don't Love Me Anymore - Gerry Thompson
TTITLE5=Black Sea Outline - Bazookahosen
TTITLE6=Bright With Stars - Chris Ballew
TTITLE7=My Cigarronne - Yeti On A Budget
TTITLE8=Possum Headed Girl - Ditch Diggers
TTITLE9=X-Ray Spex - Jug Fusion
TTITLE10=Tree Fo' A Hurricane - Dr. Oakroot
TTITLE11=John Henry - Johnny Lowebow
TTITLE12=High Noon - Shane Speal
TTITLE13=Voodoo Stew - Elliot and the Untouchables
TTITLE14=The Way To Green Osiris - Stone Breath
TTITLE15=Tone To Salve My Soul - Tim Bower
TTITLE16=Don't Want To See You Go - StacyPuckett
TTITLE17=Cigar Holler - Mack Stevens and David Betz
TTITLE18=My Little Toy Ray Gun - Dynamo Ray
TTITLE19=Berta Berta - Rollie Tussing and Ezra Holbrook
TTITLE20=Sophia's Tune- My Blue Neighborhood
TTITLE21=You're Going To Need Somebody On YOur Bond - Tim Bower
TTITLE22=Jesus Gonna Make Up My Dyin' Bed - Jug Fusion
TTITLE23=Swing Low Sweet Chariot - Stacy Puckett
EXTD=
EXTT0=
EXTT1=
EXTT2=
EXTT3=
EXTT4=
EXTT5=
EXTT6=
EXTT7=
EXTT8=
EXTT9=
EXTT10=
EXTT11=
EXTT12=
EXTT13=
EXTT14=
EXTT15=
EXTT16=
EXTT17=
EXTT18=
EXTT19=
EXTT20=
EXTT21=
EXTT22=
EXTT23=
PLAYORDER=
